# xmcd
#
# Track frame offsets: 
#        150
#        12450
#        22292
#        38672
#        51707
#        63942
#        76375
#        88017
#        97542
#        111805
#
# Disc length: 1660 seconds
#
# Revision: 0
# Processed by: cddbd v1.5PL3 Copyright (c) Steve Scherf et al.
# Submitted via: ExactAudioCopy v0.90b4
#
DISCID=7a067a0a
DTITLE=Merle Haggard - Greatest Hits Volume (1)
DYEAR=1900
DGENRE=Country
TTITLE0=Okie From Muskogee
TTITLE1=Mama Tried
TTITLE2=Hungry Eyes
TTITLE3=The Fightin' Side Of Me
TTITLE4=Workin' Man Blues
TTITLE5=If We Make It Through December
TTITLE6=Carolyn
TTITLE7=The Legend Of Bonnie and Clyde
TTITLE8=Branded Man
TTITLE9=Sing Me Back Home
EXTD=
EXTT0=
EXTT1=
EXTT2=
EXTT3=
EXTT4=
EXTT5=
EXTT6=
EXTT7=
EXTT8=
EXTT9=
PLAYORDER=
